<svg xmlns="http://www.w3.org/2000/svg" viewBox="0 0 64 64" shape-rendering="crispEdges">
  <!-- frame -->
  <rect x="4" y="4" width="56" height="56" rx="6" fill="#1a1f2c" stroke="#5a6273" stroke-width="2"/>
  <rect x="6" y="6" width="52" height="52" rx="4" fill="#252b3a"/>
  <!-- Claude-style spark (8-point) -->
  <g fill="#d97757">
    <rect x="30" y="14" width="4" height="14"/>
    <rect x="30" y="36" width="4" height="14"/>
    <rect x="14" y="30" width="14" height="4"/>
    <rect x="36" y="30" width="14" height="4"/>
    <rect x="20" y="20" width="4" height="4"/>
    <rect x="40" y="20" width="4" height="4"/>
    <rect x="20" y="40" width="4" height="4"/>
    <rect x="40" y="40" width="4" height="4"/>
    <rect x="22" y="22" width="4" height="4"/>
    <rect x="38" y="22" width="4" height="4"/>
    <rect x="22" y="38" width="4" height="4"/>
    <rect x="38" y="38" width="4" height="4"/>
  </g>
  <!-- center -->
  <rect x="28" y="28" width="8" height="8" fill="#f4a584"/>
  <rect x="30" y="30" width="4" height="4" fill="#fff"/>
</svg>
