<svg xmlns="http://www.w3.org/2000/svg" viewBox="0 0 16 16" shape-rendering="crispEdges"><rect x="2" y="1" width="4" height="1" fill="#0b0d12"/><rect x="10" y="1" width="4" height="1" fill="#0b0d12"/><rect x="2" y="2" width="1" height="1" fill="#0b0d12"/><rect x="3" y="2" width="2" height="1" fill="#f7f7fa"/><rect x="5" y="2" width="1" height="1" fill="#0b0d12"/><rect x="10" y="2" width="1" height="1" fill="#0b0d12"/><rect x="11" y="2" width="2" height="1" fill="#f7f7fa"/><rect x="13" y="2" width="1" height="1" fill="#0b0d12"/><rect x="2" y="3" width="1" height="1" fill="#0b0d12"/><rect x="3" y="3" width="2" height="1" fill="#f7f7fa"/><rect x="5" y="3" width="1" height="1" fill="#0b0d12"/><rect x="10" y="3" width="1" height="1" fill="#0b0d12"/><rect x="11" y="3" width="2" height="1" fill="#f7f7fa"/><rect x="13" y="3" width="1" height="1" fill="#0b0d12"/><rect x="2" y="4" width="1" height="1" fill="#0b0d12"/><rect x="3" y="4" width="2" height="1" fill="#f7f7fa"/><rect x="5" y="4" width="1" height="1" fill="#0b0d12"/><rect x="10" y="4" width="1" height="1" fill="#0b0d12"/><rect x="11" y="4" width="2" height="1" fill="#f7f7fa"/><rect x="13" y="4" width="1" height="1" fill="#0b0d12"/><rect x="2" y="5" width="1" height="1" fill="#0b0d12"/><rect x="3" y="5" width="2" height="1" fill="#f7f7fa"/><rect x="5" y="5" width="1" height="1" fill="#0b0d12"/><rect x="10" y="5" width="1" height="1" fill="#0b0d12"/><rect x="11" y="5" width="2" height="1" fill="#f7f7fa"/><rect x="13" y="5" width="1" height="1" fill="#0b0d12"/><rect x="2" y="6" width="1" height="1" fill="#0b0d12"/><rect x="3" y="6" width="2" height="1" fill="#f7f7fa"/><rect x="5" y="6" width="1" height="1" fill="#0b0d12"/><rect x="10" y="6" width="1" height="1" fill="#0b0d12"/><rect x="11" y="6" width="2" height="1" fill="#f7f7fa"/><rect x="13" y="6" width="1" height="1" fill="#0b0d12"/><rect x="2" y="7" width="1" height="1" fill="#0b0d12"/><rect x="3" y="7" width="2" height="1" fill="#3b8c4a"/><rect x="5" y="7" width="1" height="1" fill="#0b0d12"/><rect x="10" y="7" width="1" height="1" fill="#0b0d12"/><rect x="11" y="7" width="2" height="1" fill="#3a7be0"/><rect x="13" y="7" width="1" height="1" fill="#0b0d12"/><rect x="2" y="8" width="1" height="1" fill="#0b0d12"/><rect x="3" y="8" width="2" height="1" fill="#3b8c4a"/><rect x="5" y="8" width="1" height="1" fill="#0b0d12"/><rect x="10" y="8" width="1" height="1" fill="#0b0d12"/><rect x="11" y="8" width="2" height="1" fill="#3a7be0"/><rect x="13" y="8" width="1" height="1" fill="#0b0d12"/><rect x="2" y="9" width="1" height="1" fill="#0b0d12"/><rect x="3" y="9" width="2" height="1" fill="#3b8c4a"/><rect x="5" y="9" width="1" height="1" fill="#0b0d12"/><rect x="10" y="9" width="1" height="1" fill="#0b0d12"/><rect x="11" y="9" width="2" height="1" fill="#3a7be0"/><rect x="13" y="9" width="1" height="1" fill="#0b0d12"/><rect x="2" y="10" width="1" height="1" fill="#0b0d12"/><rect x="3" y="10" width="2" height="1" fill="#3b8c4a"/><rect x="5" y="10" width="1" height="1" fill="#0b0d12"/><rect x="10" y="10" width="1" height="1" fill="#0b0d12"/><rect x="11" y="10" width="2" height="1" fill="#3a7be0"/><rect x="13" y="10" width="1" height="1" fill="#0b0d12"/><rect x="2" y="11" width="1" height="1" fill="#0b0d12"/><rect x="3" y="11" width="2" height="1" fill="#3b8c4a"/><rect x="5" y="11" width="1" height="1" fill="#0b0d12"/><rect x="10" y="11" width="1" height="1" fill="#0b0d12"/><rect x="11" y="11" width="2" height="1" fill="#3a7be0"/><rect x="13" y="11" width="1" height="1" fill="#0b0d12"/><rect x="3" y="12" width="1" height="1" fill="#0b0d12"/><rect x="4" y="12" width="1" height="1" fill="#3b8c4a"/><rect x="5" y="12" width="1" height="1" fill="#0b0d12"/><rect x="10" y="12" width="1" height="1" fill="#0b0d12"/><rect x="11" y="12" width="1" height="1" fill="#3a7be0"/><rect x="12" y="12" width="1" height="1" fill="#0b0d12"/><rect x="4" y="13" width="2" height="1" fill="#0b0d12"/><rect x="10" y="13" width="2" height="1" fill="#0b0d12"/></svg>