<svg xmlns="http://www.w3.org/2000/svg" viewBox="0 0 16 16" shape-rendering="crispEdges"><rect x="2" y="1" width="12" height="1" fill="#0b0d12"/><rect x="2" y="2" width="1" height="1" fill="#0b0d12"/><rect x="3" y="2" width="10" height="1" fill="#e89045"/><rect x="13" y="2" width="1" height="1" fill="#0b0d12"/><rect x="2" y="3" width="1" height="1" fill="#0b0d12"/><rect x="3" y="3" width="1" height="1" fill="#e89045"/><rect x="4" y="3" width="8" height="1" fill="#f7f7fa"/><rect x="12" y="3" width="1" height="1" fill="#e89045"/><rect x="13" y="3" width="1" height="1" fill="#0b0d12"/><rect x="2" y="4" width="1" height="1" fill="#0b0d12"/><rect x="3" y="4" width="1" height="1" fill="#e89045"/><rect x="4" y="4" width="8" height="1" fill="#0b0d12"/><rect x="12" y="4" width="1" height="1" fill="#e89045"/><rect x="13" y="4" width="1" height="1" fill="#0b0d12"/><rect x="2" y="5" width="1" height="1" fill="#0b0d12"/><rect x="3" y="5" width="1" height="1" fill="#e89045"/><rect x="4" y="5" width="8" height="1" fill="#f7f7fa"/><rect x="12" y="5" width="1" height="1" fill="#e89045"/><rect x="13" y="5" width="1" height="1" fill="#0b0d12"/><rect x="2" y="6" width="1" height="1" fill="#0b0d12"/><rect x="3" y="6" width="1" height="1" fill="#e89045"/><rect x="4" y="6" width="8" height="1" fill="#0b0d12"/><rect x="12" y="6" width="1" height="1" fill="#e89045"/><rect x="13" y="6" width="1" height="1" fill="#0b0d12"/><rect x="2" y="7" width="1" height="1" fill="#0b0d12"/><rect x="3" y="7" width="1" height="1" fill="#e89045"/><rect x="4" y="7" width="8" height="1" fill="#f7f7fa"/><rect x="12" y="7" width="1" height="1" fill="#e89045"/><rect x="13" y="7" width="1" height="1" fill="#0b0d12"/><rect x="2" y="8" width="1" height="1" fill="#0b0d12"/><rect x="3" y="8" width="1" height="1" fill="#e89045"/><rect x="4" y="8" width="8" height="1" fill="#0b0d12"/><rect x="12" y="8" width="1" height="1" fill="#e89045"/><rect x="13" y="8" width="1" height="1" fill="#0b0d12"/><rect x="2" y="9" width="1" height="1" fill="#0b0d12"/><rect x="3" y="9" width="1" height="1" fill="#e89045"/><rect x="4" y="9" width="8" height="1" fill="#f7f7fa"/><rect x="12" y="9" width="1" height="1" fill="#e89045"/><rect x="13" y="9" width="1" height="1" fill="#0b0d12"/><rect x="2" y="10" width="1" height="1" fill="#0b0d12"/><rect x="3" y="10" width="1" height="1" fill="#e89045"/><rect x="4" y="10" width="6" height="1" fill="#0b0d12"/><rect x="10" y="10" width="2" height="1" fill="#3b8c4a"/><rect x="12" y="10" width="1" height="1" fill="#e89045"/><rect x="13" y="10" width="1" height="1" fill="#0b0d12"/><rect x="2" y="11" width="1" height="1" fill="#0b0d12"/><rect x="3" y="11" width="10" height="1" fill="#e89045"/><rect x="13" y="11" width="1" height="1" fill="#0b0d12"/><rect x="2" y="12" width="12" height="1" fill="#0b0d12"/></svg>