<svg xmlns="http://www.w3.org/2000/svg" viewBox="0 0 64 64" shape-rendering="crispEdges"><rect x="24" y="4" width="4" height="4" fill="#0b0d12"/><rect x="28" y="4" width="4" height="4" fill="#0b0d12"/><rect x="32" y="4" width="4" height="4" fill="#0b0d12"/><rect x="36" y="4" width="4" height="4" fill="#0b0d12"/><rect x="20" y="8" width="4" height="4" fill="#0b0d12"/><rect x="24" y="8" width="4" height="4" fill="#9aa3b3"/><rect x="28" y="8" width="4" height="4" fill="#9aa3b3"/><rect x="32" y="8" width="4" height="4" fill="#9aa3b3"/><rect x="36" y="8" width="4" height="4" fill="#9aa3b3"/><rect x="40" y="8" width="4" height="4" fill="#0b0d12"/><rect x="16" y="12" width="4" height="4" fill="#0b0d12"/><rect x="20" y="12" width="4" height="4" fill="#9aa3b3"/><rect x="24" y="12" width="4" height="4" fill="#dcd0b8"/><rect x="28" y="12" width="4" height="4" fill="#dcd0b8"/><rect x="32" y="12" width="4" height="4" fill="#dcd0b8"/><rect x="36" y="12" width="4" height="4" fill="#dcd0b8"/><rect x="40" y="12" width="4" height="4" fill="#9aa3b3"/><rect x="44" y="12" width="4" height="4" fill="#0b0d12"/><rect x="16" y="16" width="4" height="4" fill="#0b0d12"/><rect x="20" y="16" width="4" height="4" fill="#9aa3b3"/><rect x="24" y="16" width="4" height="4" fill="#9aa3b3"/><rect x="28" y="16" width="4" height="4" fill="#9aa3b3"/><rect x="32" y="16" width="4" height="4" fill="#9aa3b3"/><rect x="36" y="16" width="4" height="4" fill="#9aa3b3"/><rect x="40" y="16" width="4" height="4" fill="#9aa3b3"/><rect x="44" y="16" width="4" height="4" fill="#0b0d12"/><rect x="20" y="20" width="4" height="4" fill="#0b0d12"/><rect x="24" y="20" width="4" height="4" fill="#0b0d12"/><rect x="28" y="20" width="4" height="4" fill="#0b0d12"/><rect x="32" y="20" width="4" height="4" fill="#0b0d12"/><rect x="36" y="20" width="4" height="4" fill="#0b0d12"/><rect x="40" y="20" width="4" height="4" fill="#0b0d12"/><rect x="12" y="24" width="4" height="4" fill="#0b0d12"/><rect x="16" y="24" width="4" height="4" fill="#9aa3b3"/><rect x="20" y="24" width="4" height="4" fill="#9aa3b3"/><rect x="24" y="24" width="4" height="4" fill="#9aa3b3"/><rect x="28" y="24" width="4" height="4" fill="#9aa3b3"/><rect x="32" y="24" width="4" height="4" fill="#9aa3b3"/><rect x="36" y="24" width="4" height="4" fill="#9aa3b3"/><rect x="40" y="24" width="4" height="4" fill="#9aa3b3"/><rect x="44" y="24" width="4" height="4" fill="#9aa3b3"/><rect x="48" y="24" width="4" height="4" fill="#0b0d12"/><rect x="12" y="28" width="4" height="4" fill="#0b0d12"/><rect x="16" y="28" width="4" height="4" fill="#22c55e"/><rect x="20" y="28" width="4" height="4" fill="#22c55e"/><rect x="24" y="28" width="4" height="4" fill="#22c55e"/><rect x="28" y="28" width="4" height="4" fill="#22c55e"/><rect x="32" y="28" width="4" height="4" fill="#22c55e"/><rect x="36" y="28" width="4" height="4" fill="#22c55e"/><rect x="40" y="28" width="4" height="4" fill="#22c55e"/><rect x="44" y="28" width="4" height="4" fill="#22c55e"/><rect x="48" y="28" width="4" height="4" fill="#0b0d12"/><rect x="12" y="32" width="4" height="4" fill="#0b0d12"/><rect x="16" y="32" width="4" height="4" fill="#22c55e"/><rect x="20" y="32" width="4" height="4" fill="#22c55e"/><rect x="40" y="32" width="4" height="4" fill="#22c55e"/><rect x="44" y="32" width="4" height="4" fill="#22c55e"/><rect x="48" y="32" width="4" height="4" fill="#0b0d12"/><rect x="60" y="32" width="4" height="4" fill="#0b0d12"/><rect x="12" y="36" width="4" height="4" fill="#0b0d12"/><rect x="16" y="36" width="4" height="4" fill="#22c55e"/><rect x="28" y="36" width="4" height="4" fill="#22c55e"/><rect x="32" y="36" width="4" height="4" fill="#22c55e"/><rect x="44" y="36" width="4" height="4" fill="#22c55e"/><rect x="48" y="36" width="4" height="4" fill="#0b0d12"/><rect x="56" y="36" width="4" height="4" fill="#22c55e"/><rect x="60" y="36" width="4" height="4" fill="#0b0d12"/><rect x="12" y="40" width="4" height="4" fill="#0b0d12"/><rect x="16" y="40" width="4" height="4" fill="#22c55e"/><rect x="24" y="40" width="4" height="4" fill="#22c55e"/><rect x="28" y="40" width="4" height="4" fill="#22c55e"/><rect x="32" y="40" width="4" height="4" fill="#22c55e"/><rect x="36" y="40" width="4" height="4" fill="#22c55e"/><rect x="44" y="40" width="4" height="4" fill="#22c55e"/><rect x="48" y="40" width="4" height="4" fill="#0b0d12"/><rect x="52" y="40" width="4" height="4" fill="#22c55e"/><rect x="56" y="40" width="4" height="4" fill="#22c55e"/><rect x="12" y="44" width="4" height="4" fill="#0b0d12"/><rect x="16" y="44" width="4" height="4" fill="#22c55e"/><rect x="28" y="44" width="4" height="4" fill="#22c55e"/><rect x="32" y="44" width="4" height="4" fill="#22c55e"/><rect x="44" y="44" width="4" height="4" fill="#22c55e"/><rect x="48" y="44" width="4" height="4" fill="#0b0d12"/><rect x="52" y="44" width="4" height="4" fill="#22c55e"/><rect x="56" y="44" width="4" height="4" fill="#0b0d12"/><rect x="12" y="48" width="4" height="4" fill="#0b0d12"/><rect x="16" y="48" width="4" height="4" fill="#22c55e"/><rect x="20" y="48" width="4" height="4" fill="#22c55e"/><rect x="40" y="48" width="4" height="4" fill="#22c55e"/><rect x="44" y="48" width="4" height="4" fill="#22c55e"/><rect x="48" y="48" width="4" height="4" fill="#0b0d12"/><rect x="12" y="52" width="4" height="4" fill="#0b0d12"/><rect x="16" y="52" width="4" height="4" fill="#22c55e"/><rect x="20" y="52" width="4" height="4" fill="#22c55e"/><rect x="24" y="52" width="4" height="4" fill="#22c55e"/><rect x="28" y="52" width="4" height="4" fill="#22c55e"/><rect x="32" y="52" width="4" height="4" fill="#22c55e"/><rect x="36" y="52" width="4" height="4" fill="#22c55e"/><rect x="40" y="52" width="4" height="4" fill="#22c55e"/><rect x="44" y="52" width="4" height="4" fill="#22c55e"/><rect x="48" y="52" width="4" height="4" fill="#0b0d12"/><rect x="16" y="56" width="4" height="4" fill="#0b0d12"/><rect x="20" y="56" width="4" height="4" fill="#0b0d12"/><rect x="40" y="56" width="4" height="4" fill="#0b0d12"/><rect x="44" y="56" width="4" height="4" fill="#0b0d12"/></svg>