<svg xmlns="http://www.w3.org/2000/svg" viewBox="0 0 64 64" shape-rendering="crispEdges"><rect x="16" y="4" width="4" height="4" fill="#0b0d12"/><rect x="20" y="4" width="4" height="4" fill="#0b0d12"/><rect x="24" y="4" width="4" height="4" fill="#0b0d12"/><rect x="28" y="4" width="4" height="4" fill="#0b0d12"/><rect x="32" y="4" width="4" height="4" fill="#0b0d12"/><rect x="36" y="4" width="4" height="4" fill="#0b0d12"/><rect x="40" y="4" width="4" height="4" fill="#0b0d12"/><rect x="44" y="4" width="4" height="4" fill="#0b0d12"/><rect x="12" y="8" width="4" height="4" fill="#0b0d12"/><rect x="16" y="8" width="4" height="4" fill="#854d2a"/><rect x="20" y="8" width="4" height="4" fill="#854d2a"/><rect x="24" y="8" width="4" height="4" fill="#854d2a"/><rect x="28" y="8" width="4" height="4" fill="#854d2a"/><rect x="32" y="8" width="4" height="4" fill="#854d2a"/><rect x="36" y="8" width="4" height="4" fill="#854d2a"/><rect x="40" y="8" width="4" height="4" fill="#854d2a"/><rect x="44" y="8" width="4" height="4" fill="#854d2a"/><rect x="48" y="8" width="4" height="4" fill="#0b0d12"/><rect x="12" y="12" width="4" height="4" fill="#0b0d12"/><rect x="16" y="12" width="4" height="4" fill="#854d2a"/><rect x="20" y="12" width="4" height="4" fill="#f4d4a3"/><rect x="24" y="12" width="4" height="4" fill="#f4d4a3"/><rect x="28" y="12" width="4" height="4" fill="#f4d4a3"/><rect x="32" y="12" width="4" height="4" fill="#f4d4a3"/><rect x="36" y="12" width="4" height="4" fill="#f4d4a3"/><rect x="40" y="12" width="4" height="4" fill="#f4d4a3"/><rect x="44" y="12" width="4" height="4" fill="#854d2a"/><rect x="48" y="12" width="4" height="4" fill="#0b0d12"/><rect x="12" y="16" width="4" height="4" fill="#0b0d12"/><rect x="16" y="16" width="4" height="4" fill="#854d2a"/><rect x="20" y="16" width="4" height="4" fill="#f4d4a3"/><rect x="24" y="16" width="4" height="4" fill="#0b0d12"/><rect x="28" y="16" width="4" height="4" fill="#f4d4a3"/><rect x="32" y="16" width="4" height="4" fill="#0b0d12"/><rect x="36" y="16" width="4" height="4" fill="#f4d4a3"/><rect x="40" y="16" width="4" height="4" fill="#f4d4a3"/><rect x="44" y="16" width="4" height="4" fill="#854d2a"/><rect x="48" y="16" width="4" height="4" fill="#0b0d12"/><rect x="12" y="20" width="4" height="4" fill="#0b0d12"/><rect x="16" y="20" width="4" height="4" fill="#854d2a"/><rect x="20" y="20" width="4" height="4" fill="#f4d4a3"/><rect x="24" y="20" width="4" height="4" fill="#f4d4a3"/><rect x="28" y="20" width="4" height="4" fill="#f4d4a3"/><rect x="32" y="20" width="4" height="4" fill="#f4d4a3"/><rect x="36" y="20" width="4" height="4" fill="#f4d4a3"/><rect x="40" y="20" width="4" height="4" fill="#f4d4a3"/><rect x="44" y="20" width="4" height="4" fill="#854d2a"/><rect x="48" y="20" width="4" height="4" fill="#0b0d12"/><rect x="16" y="24" width="4" height="4" fill="#0b0d12"/><rect x="20" y="24" width="4" height="4" fill="#f4d4a3"/><rect x="24" y="24" width="4" height="4" fill="#f4d4a3"/><rect x="28" y="24" width="4" height="4" fill="#f4d4a3"/><rect x="32" y="24" width="4" height="4" fill="#f4d4a3"/><rect x="36" y="24" width="4" height="4" fill="#f4d4a3"/><rect x="40" y="24" width="4" height="4" fill="#f4d4a3"/><rect x="44" y="24" width="4" height="4" fill="#0b0d12"/><rect x="16" y="28" width="4" height="4" fill="#0b0d12"/><rect x="20" y="28" width="4" height="4" fill="#0b0d12"/><rect x="24" y="28" width="4" height="4" fill="#0b0d12"/><rect x="28" y="28" width="4" height="4" fill="#0b0d12"/><rect x="32" y="28" width="4" height="4" fill="#0b0d12"/><rect x="36" y="28" width="4" height="4" fill="#0b0d12"/><rect x="40" y="28" width="4" height="4" fill="#0b0d12"/><rect x="44" y="28" width="4" height="4" fill="#0b0d12"/><rect x="12" y="32" width="4" height="4" fill="#0b0d12"/><rect x="16" y="32" width="4" height="4" fill="#854d2a"/><rect x="20" y="32" width="4" height="4" fill="#854d2a"/><rect x="24" y="32" width="4" height="4" fill="#854d2a"/><rect x="28" y="32" width="4" height="4" fill="#854d2a"/><rect x="32" y="32" width="4" height="4" fill="#854d2a"/><rect x="36" y="32" width="4" height="4" fill="#854d2a"/><rect x="40" y="32" width="4" height="4" fill="#854d2a"/><rect x="44" y="32" width="4" height="4" fill="#854d2a"/><rect x="48" y="32" width="4" height="4" fill="#0b0d12"/><rect x="12" y="36" width="4" height="4" fill="#0b0d12"/><rect x="16" y="36" width="4" height="4" fill="#854d2a"/><rect x="20" y="36" width="4" height="4" fill="#854d2a"/><rect x="24" y="36" width="4" height="4" fill="#854d2a"/><rect x="28" y="36" width="4" height="4" fill="#854d2a"/><rect x="32" y="36" width="4" height="4" fill="#854d2a"/><rect x="36" y="36" width="4" height="4" fill="#854d2a"/><rect x="40" y="36" width="4" height="4" fill="#854d2a"/><rect x="44" y="36" width="4" height="4" fill="#854d2a"/><rect x="48" y="36" width="4" height="4" fill="#0b0d12"/><rect x="12" y="40" width="4" height="4" fill="#0b0d12"/><rect x="16" y="40" width="4" height="4" fill="#854d2a"/><rect x="20" y="40" width="4" height="4" fill="#854d2a"/><rect x="24" y="40" width="4" height="4" fill="#854d2a"/><rect x="28" y="40" width="4" height="4" fill="#854d2a"/><rect x="32" y="40" width="4" height="4" fill="#854d2a"/><rect x="36" y="40" width="4" height="4" fill="#854d2a"/><rect x="40" y="40" width="4" height="4" fill="#854d2a"/><rect x="44" y="40" width="4" height="4" fill="#854d2a"/><rect x="48" y="40" width="4" height="4" fill="#0b0d12"/><rect x="12" y="44" width="4" height="4" fill="#0b0d12"/><rect x="16" y="44" width="4" height="4" fill="#854d2a"/><rect x="20" y="44" width="4" height="4" fill="#854d2a"/><rect x="24" y="44" width="4" height="4" fill="#854d2a"/><rect x="28" y="44" width="4" height="4" fill="#854d2a"/><rect x="32" y="44" width="4" height="4" fill="#854d2a"/><rect x="36" y="44" width="4" height="4" fill="#854d2a"/><rect x="40" y="44" width="4" height="4" fill="#854d2a"/><rect x="44" y="44" width="4" height="4" fill="#854d2a"/><rect x="48" y="44" width="4" height="4" fill="#0b0d12"/><rect x="16" y="48" width="4" height="4" fill="#0b0d12"/><rect x="20" y="48" width="4" height="4" fill="#0b0d12"/><rect x="40" y="48" width="4" height="4" fill="#0b0d12"/><rect x="44" y="48" width="4" height="4" fill="#0b0d12"/><rect x="16" y="52" width="4" height="4" fill="#0b0d12"/><rect x="20" y="52" width="4" height="4" fill="#854d2a"/><rect x="40" y="52" width="4" height="4" fill="#854d2a"/><rect x="44" y="52" width="4" height="4" fill="#0b0d12"/><rect x="16" y="56" width="4" height="4" fill="#0b0d12"/><rect x="20" y="56" width="4" height="4" fill="#0b0d12"/><rect x="40" y="56" width="4" height="4" fill="#0b0d12"/><rect x="44" y="56" width="4" height="4" fill="#0b0d12"/></svg>