<svg xmlns="http://www.w3.org/2000/svg" viewBox="0 0 64 64" shape-rendering="crispEdges">
  <rect x="4" y="4" width="56" height="56" rx="6" fill="#1a1f2c" stroke="#5a6273" stroke-width="2"/>
  <rect x="6" y="6" width="52" height="52" rx="4" fill="#252b3a"/>
<rect x="12" y="12" width="4" height="4" fill="#ef4444"/><rect x="16" y="12" width="4" height="4" fill="#ef4444"/><rect x="40" y="12" width="4" height="4" fill="#ef4444"/><rect x="44" y="12" width="4" height="4" fill="#ef4444"/><rect x="12" y="16" width="4" height="4" fill="#ef4444"/><rect x="16" y="16" width="4" height="4" fill="#ffffff"/><rect x="20" y="16" width="4" height="4" fill="#ef4444"/><rect x="36" y="16" width="4" height="4" fill="#ef4444"/><rect x="40" y="16" width="4" height="4" fill="#ffffff"/><rect x="44" y="16" width="4" height="4" fill="#ef4444"/><rect x="16" y="20" width="4" height="4" fill="#ef4444"/><rect x="20" y="20" width="4" height="4" fill="#ffffff"/><rect x="24" y="20" width="4" height="4" fill="#ef4444"/><rect x="32" y="20" width="4" height="4" fill="#ef4444"/><rect x="36" y="20" width="4" height="4" fill="#ffffff"/><rect x="40" y="20" width="4" height="4" fill="#ef4444"/><rect x="20" y="24" width="4" height="4" fill="#ef4444"/><rect x="24" y="24" width="4" height="4" fill="#ffffff"/><rect x="28" y="24" width="4" height="4" fill="#ef4444"/><rect x="32" y="24" width="4" height="4" fill="#ffffff"/><rect x="36" y="24" width="4" height="4" fill="#ef4444"/><rect x="24" y="28" width="4" height="4" fill="#ef4444"/><rect x="28" y="28" width="4" height="4" fill="#ffffff"/><rect x="32" y="28" width="4" height="4" fill="#ef4444"/><rect x="24" y="32" width="4" height="4" fill="#ef4444"/><rect x="28" y="32" width="4" height="4" fill="#ffffff"/><rect x="32" y="32" width="4" height="4" fill="#ef4444"/><rect x="20" y="36" width="4" height="4" fill="#ef4444"/><rect x="24" y="36" width="4" height="4" fill="#ffffff"/><rect x="28" y="36" width="4" height="4" fill="#ef4444"/><rect x="32" y="36" width="4" height="4" fill="#ffffff"/><rect x="36" y="36" width="4" height="4" fill="#ef4444"/><rect x="16" y="40" width="4" height="4" fill="#ef4444"/><rect x="20" y="40" width="4" height="4" fill="#ffffff"/><rect x="24" y="40" width="4" height="4" fill="#ef4444"/><rect x="32" y="40" width="4" height="4" fill="#ef4444"/><rect x="36" y="40" width="4" height="4" fill="#ffffff"/><rect x="40" y="40" width="4" height="4" fill="#ef4444"/><rect x="12" y="44" width="4" height="4" fill="#ef4444"/><rect x="16" y="44" width="4" height="4" fill="#ffffff"/><rect x="20" y="44" width="4" height="4" fill="#ef4444"/><rect x="36" y="44" width="4" height="4" fill="#ef4444"/><rect x="40" y="44" width="4" height="4" fill="#ffffff"/><rect x="44" y="44" width="4" height="4" fill="#ef4444"/><rect x="12" y="48" width="4" height="4" fill="#ef4444"/><rect x="16" y="48" width="4" height="4" fill="#ef4444"/><rect x="40" y="48" width="4" height="4" fill="#ef4444"/><rect x="44" y="48" width="4" height="4" fill="#ef4444"/></svg>